<svg width="48" height="48" viewBox="0 0 48 48" fill="none" xmlns="http://www.w3.org/2000/svg">
<rect width="48" height="48" fill="#152534"/>
<path fill-rule="evenodd" clip-rule="evenodd" d="M4 12V36.3724H22.0575V31.2325H9.21818V26.7561H18.9745V21.5848H9.21818V17.1398H22.0575V12H4ZM23.8108 12.0314V36.3724H28.9973V28.3256L38.965 28.296H38.9661C40.3559 28.2957 41.5644 27.8099 42.537 26.8461L42.541 26.8421L42.545 26.838C43.5037 25.8629 44 24.6825 44 23.3377V16.9897C44 15.6461 43.5043 14.4733 42.5411 13.5168C41.5708 12.5318 40.3608 12.0314 38.965 12.0314H23.8108ZM38.7685 23.1101C38.7761 23.0516 38.7818 22.9717 38.7818 22.8663V17.4611C38.7818 17.3373 38.7739 17.2487 38.7644 17.1885C38.7037 17.1792 38.6143 17.1713 38.4894 17.1713H29.2897C29.1678 17.1713 29.0768 17.1788 29.0115 17.1885C29.0034 17.2542 28.9973 17.3435 28.9973 17.4611V22.8663C28.9973 22.9675 29.0018 23.0479 29.0083 23.1102C29.0786 23.1187 29.1711 23.1247 29.2897 23.1247H38.4894C38.6104 23.1247 38.7019 23.1184 38.7685 23.1101Z" fill="#CED7DE"/>
<path fill-rule="evenodd" clip-rule="evenodd" d="M38.1242 34.9144H30.8662V32.8242V30.1133H33.2886V30.6175V32.2956H35.0593H38.1242V30.1133H40.7007V32.2956V34.9144V36.4421H38.1242V34.9144Z" fill="#CCA723"/>
</svg>
